<svg width="112" height="20" viewBox="0 0 112 20" fill="none" xmlns="http://www.w3.org/2000/svg">
<path fill-rule="evenodd" clip-rule="evenodd" d="M51.1625 1.32743C51.0812 1.54905 51.046 1.78493 51.059 2.02063C51.046 2.25633 51.0812 2.4922 51.1625 2.71383C51.2438 2.93546 51.3694 3.13819 51.5316 3.30963C51.6939 3.48107 51.8894 3.61763 52.1063 3.71096C52.3231 3.80428 52.5567 3.85241 52.7927 3.85241C53.0288 3.85241 53.2624 3.80428 53.4792 3.71096C53.696 3.61763 53.8915 3.48107 54.0538 3.30963C54.2161 3.13819 54.3417 2.93546 54.423 2.71383C54.5042 2.4922 54.5395 2.25633 54.5265 2.02063C54.5395 1.78493 54.5042 1.54905 54.423 1.32743C54.3417 1.1058 54.2161 0.903067 54.0538 0.731624C53.8915 0.560181 53.696 0.423625 53.4792 0.3303C53.2624 0.236976 53.0288 0.188843 52.7927 0.188843C52.5567 0.188843 52.3231 0.236976 52.1063 0.3303C51.8894 0.423625 51.6939 0.560181 51.5316 0.731624C51.3694 0.903067 51.2438 1.1058 51.1625 1.32743ZM53.9725 1.50584C54.0253 1.67197 54.0425 1.8474 54.0229 2.02063C54.0425 2.19386 54.0253 2.36928 53.9725 2.53541C53.9196 2.70154 53.8322 2.85463 53.7161 2.98466C53.6 3.11469 53.4577 3.21873 53.2986 3.28996C53.1394 3.36119 52.9671 3.39801 52.7927 3.39801C52.6184 3.39801 52.446 3.36119 52.2869 3.28996C52.1278 3.21873 51.9855 3.11469 51.8694 2.98466C51.7532 2.85463 51.6659 2.70154 51.613 2.53541C51.5601 2.36928 51.5429 2.19386 51.5626 2.02063C51.5429 1.8474 51.5601 1.67197 51.613 1.50584C51.6659 1.33971 51.7532 1.18662 51.8694 1.05659C51.9855 0.926564 52.1278 0.822528 52.2869 0.751296C52.446 0.680064 52.6184 0.643243 52.7927 0.643243C52.9671 0.643243 53.1394 0.680064 53.2986 0.751296C53.4577 0.822528 53.6 0.926564 53.7161 1.05659C53.8322 1.18662 53.9196 1.33971 53.9725 1.50584ZM30.0965 2.65019C30.2381 2.38789 30.3273 2.24101 30.4742 2.16232C30.2824 2.1071 30.1157 1.98688 30.0028 1.82227C29.8898 1.65765 29.8377 1.45889 29.8552 1.26003C29.8545 1.11296 29.8846 0.967379 29.9438 0.832731C30.003 0.698083 30.0898 0.577378 30.1986 0.478446C30.3074 0.379515 30.4358 0.304569 30.5755 0.25847C30.7152 0.212371 30.8629 0.19615 31.0093 0.210859H31.9693V3.7728H31.4814V2.3092H30.9568C30.8519 2.3092 30.7208 2.42461 30.5686 2.73937L30.044 3.78854H29.5195L30.0965 2.65019ZM31.0565 1.92101H31.4814V0.635774H31.0617C30.9685 0.622706 30.8735 0.630203 30.7835 0.657738C30.6934 0.685273 30.6105 0.73218 30.5405 0.795166C30.4706 0.858152 30.4152 0.935691 30.3784 1.02234C30.3415 1.10899 30.3241 1.20265 30.3273 1.29675C30.3273 1.73216 30.6368 1.92101 31.0408 1.92101H31.0565ZM2.74457 3.56819C2.42266 3.74239 2.06138 3.83091 1.6954 3.82524C1.46364 3.83356 1.23276 3.79253 1.01805 3.70487C0.803348 3.61721 0.609724 3.48492 0.450009 3.31678C0.290294 3.14863 0.168136 2.94846 0.0916292 2.72953C0.0151224 2.51061 -0.0139862 2.27792 0.00623205 2.04689C-0.00530916 1.80717 0.0325248 1.56762 0.117387 1.34312C0.20225 1.11862 0.332332 0.913941 0.499565 0.741789C0.666798 0.569637 0.867617 0.433679 1.08957 0.342346C1.31152 0.251013 1.54986 0.206253 1.78983 0.210842C2.09618 0.202132 2.40017 0.266887 2.67638 0.399693V0.845592C2.40895 0.695468 2.10699 0.617716 1.80032 0.62002C1.62294 0.623731 1.44819 0.663685 1.28682 0.737425C1.12545 0.811165 0.980865 0.917132 0.86196 1.04881C0.743055 1.18049 0.652341 1.3351 0.595394 1.50313C0.538447 1.67117 0.516471 1.84907 0.530818 2.02591C0.510731 2.2025 0.528415 2.38133 0.582698 2.55056C0.636981 2.71979 0.726622 2.87555 0.845677 3.0075C0.964732 3.13945 1.11048 3.24459 1.27325 3.31593C1.43603 3.38727 1.61211 3.42319 1.78983 3.42131C2.08483 3.41806 2.37398 3.33854 2.62916 3.19049L2.74457 3.56819ZM9.59569 19.0959V7.33988H11.9826V11.972H16.7038V7.33988H19.0907V19.0959H16.7038V14.2434H11.9826V19.0959H9.59569ZM20.7484 7.33988H27.9615V9.61133H23.13V11.9143H27.0277V14.1857H23.1353V16.8087H27.9615V19.0959H20.7484V7.33988ZM32.3995 9.61133H31.8749V13.1261H32.1109C33.2388 13.1261 34.4558 12.6644 34.4558 11.353C34.4558 10.1989 33.4696 9.61133 32.4152 9.61133H32.3995ZM29.4775 19.0959V7.33988H32.3995C34.7706 7.33988 36.8217 8.85593 36.8217 11.3687C36.8217 13.9287 34.629 15.4238 32.2736 15.4238H31.8591V19.0959H29.4775ZM40.4256 9.61133V19.0959H38.044V7.33988H44.1135V9.61133H40.4256ZM46.3797 13.2362C46.3776 13.7471 46.4765 14.2533 46.6707 14.7258C46.865 15.1983 47.1507 15.6278 47.5114 15.9895C47.8722 16.3512 48.3008 16.6381 48.7728 16.8336C49.2448 17.0291 49.7508 17.1294 50.2616 17.1287C50.7739 17.1292 51.2812 17.0279 51.754 16.8307C52.2268 16.6334 52.6557 16.3442 53.0157 15.9798C53.7376 15.249 54.1428 14.2634 54.1436 13.2362C54.1489 12.229 53.7742 11.2568 53.0944 10.5136C52.7349 10.129 52.2992 9.82346 51.8151 9.61662C51.331 9.40978 50.809 9.30614 50.2826 9.31232C49.7554 9.30606 49.2326 9.40963 48.7476 9.61645C48.2626 9.82328 47.826 10.1288 47.4656 10.5136C46.7875 11.2579 46.4132 12.2294 46.4164 13.2362H46.3797ZM44.0348 13.2362C44.0254 12.3809 44.2 11.5336 44.5466 10.7516C44.8933 9.9696 45.4039 9.27124 46.044 8.7038C47.2034 7.65783 48.7004 7.06386 50.2616 7.03037C51.8314 7.04638 53.3425 7.62956 54.516 8.67233C55.1561 9.23976 55.6667 9.93812 56.0134 10.7201C56.36 11.5021 56.5345 12.3494 56.5252 13.2048C56.5297 14.0386 56.3614 14.8644 56.031 15.63C55.7005 16.3957 55.2151 17.0845 54.6052 17.6532C53.4289 18.7597 51.8765 19.3784 50.2616 19.3844C48.6467 19.3784 47.0943 18.7597 45.918 17.6532C45.3077 17.0849 44.8219 16.3961 44.4914 15.6304C44.1609 14.8647 43.9929 14.0387 43.9981 13.2048L44.0348 13.2362ZM59.8878 9.59035V19.0959H57.5009V7.33988H64.0635V9.61133L59.8878 9.59035ZM69.089 13.4198L68.1028 11.3582L67.1061 13.4198H69.089ZM70.091 15.5916H66.1041L64.415 19.0959H61.8497L68.1448 6.43759L74.3769 19.0959H71.7539L70.091 15.5916ZM77.7027 9.55363H77.1781V13.0684H77.4142C78.5421 13.0684 79.7539 12.612 79.7539 11.2953C79.7539 10.1412 78.7729 9.55363 77.7185 9.55363H77.7027ZM74.7808 19.0959V7.30315H77.708C80.0739 7.30315 82.1302 8.82446 82.1302 11.332C82.1302 13.8867 79.9427 15.3608 77.5768 15.3608H77.1677V19.0959H74.7808ZM87.7066 13.4513L86.7204 11.3897L85.7237 13.4513H87.7066ZM88.7086 15.6231H84.7165L83.0325 19.0959H80.4673L86.7623 6.43759L93.0102 19.0959H90.3872L88.7086 15.6231ZM93.3826 19.0959V7.33988H95.7695V11.972H100.491V7.33988H102.878V19.0959H100.491V14.2434H95.7695V19.0959H93.3826ZM106.733 19.0959V9.60609H104.289V7.33988H111.591V9.61133H109.12V19.0959H106.733ZM0.00625545 10.3877V7.63364C0.843382 7.23444 1.75946 7.02828 2.68689 7.03037C4.1863 7.03745 5.63032 7.59786 6.74194 8.60413C7.36619 9.19194 7.85869 9.90546 8.18693 10.6976C8.51517 11.4897 8.6717 12.3424 8.64619 13.1995C8.67232 14.0476 8.52426 14.892 8.21117 15.6806C7.89808 16.4692 7.4266 17.1852 6.82588 17.7844C5.73677 18.8255 4.28796 19.4061 2.78132 19.4054C1.81773 19.4123 0.866389 19.1893 0.00625545 18.7549V16.0218C0.774938 16.6891 1.74839 17.074 2.76558 17.1129C3.57894 17.0976 4.3611 16.7972 4.97563 16.2642C5.59016 15.7311 5.99806 14.9992 6.12818 14.1962H1.35444V11.972H6.12818C5.94835 11.196 5.50611 10.506 4.8762 10.0185C4.2463 9.53103 3.46739 9.27602 2.67115 9.29658C1.67773 9.31458 0.727034 9.70384 0.00625545 10.3877ZM3.54723 0.651415H4.56493V3.7727H5.03705V0.651415H6.00754L6.15442 0.242237H3.54723V0.651415ZM7.17734 0.242335H7.90127C8.1682 0.22711 8.43437 0.283241 8.67241 0.404957C8.84135 0.502053 8.9799 0.644275 9.07256 0.815685C9.16521 0.987095 9.2083 1.18092 9.197 1.37544C9.20486 1.58434 9.15014 1.79083 9.03984 1.96842C8.92955 2.146 8.76873 2.28659 8.57799 2.37216C8.35429 2.46012 8.11537 2.50291 7.87504 2.49806H7.6757V3.7728H7.19833L7.17734 0.242335ZM7.87504 2.10986C8.03979 2.11459 8.20333 2.08045 8.35242 2.01019C8.46497 1.94955 8.55696 1.85684 8.61674 1.74383C8.67651 1.63082 8.70137 1.5026 8.68815 1.37544C8.70146 1.25273 8.68174 1.12869 8.63101 1.01617C8.58028 0.903646 8.5004 0.806727 8.39963 0.735446C8.23781 0.653005 8.05583 0.618429 7.87504 0.635775H7.63373V2.10986H7.87504ZM11.7622 0.210849H11.4108L10.0731 3.7623H10.5714L10.9071 2.83378H12.2763L12.5963 3.77279H13.1209L11.7622 0.210849ZM11.7937 1.53281L12.1242 2.45608H11.0593L11.3898 1.53805L11.5944 0.945269C11.6312 1.04358 11.6713 1.16427 11.7345 1.3548L11.7346 1.35507L11.7346 1.35516L11.7937 1.53281ZM15.1038 1.9996L13.9445 0.242237H14.4953L15.4029 1.63764L16.3576 0.242237H16.8927L15.6809 1.98386L16.8612 3.7727H16.3209L15.3819 2.35107L14.3956 3.7727H13.8658L15.1038 1.9996ZM18.3492 0.796526C18.0245 1.12118 17.8422 1.5615 17.8422 2.02062C17.8422 2.47975 18.0245 2.92007 18.3492 3.24472C18.6738 3.56937 19.1142 3.75176 19.5733 3.75176C20.0324 3.75176 20.4727 3.56937 20.7974 3.24472C21.122 2.92007 21.3044 2.47975 21.3044 2.02062C21.3044 1.5615 21.122 1.12118 20.7974 0.796526C20.4727 0.471875 20.0324 0.289488 19.5733 0.289488C19.1142 0.289488 18.6738 0.471875 18.3492 0.796526ZM20.7504 1.50584C20.8033 1.67197 20.8204 1.84739 20.8008 2.02062C20.8204 2.19385 20.8033 2.36928 20.7504 2.53541C20.6975 2.70154 20.6102 2.85463 20.494 2.98466C20.3779 3.11469 20.2356 3.21872 20.0765 3.28996C19.9174 3.36119 19.745 3.39801 19.5707 3.39801C19.3963 3.39801 19.224 3.36119 19.0648 3.28996C18.9057 3.21872 18.7634 3.11469 18.6473 2.98466C18.5312 2.85463 18.4438 2.70154 18.3909 2.53541C18.3381 2.36928 18.3209 2.19385 18.3405 2.02062C18.3209 1.84739 18.3381 1.67197 18.3909 1.50584C18.4438 1.33971 18.5312 1.18662 18.6473 1.05659C18.7634 0.92656 18.9057 0.822523 19.0648 0.751291C19.224 0.68006 19.3963 0.643238 19.5707 0.643238C19.745 0.643238 19.9174 0.68006 20.0765 0.751291C20.2356 0.822523 20.3779 0.92656 20.494 1.05659C20.6102 1.18662 20.6975 1.33971 20.7504 1.50584ZM22.5897 0.242237H23.4763C24.2212 0.242237 24.5569 0.661907 24.5569 1.13928C24.5634 1.29545 24.5242 1.45012 24.4441 1.58431C24.3639 1.7185 24.2463 1.82637 24.1058 1.89468C24.3009 1.93522 24.4756 2.04307 24.5993 2.19937C24.723 2.35568 24.7879 2.5505 24.7825 2.74976C24.7825 3.32681 24.3681 3.76221 23.5759 3.76221H22.5897V0.242237ZM23.4238 1.78452C23.854 1.78452 24.0848 1.5642 24.0848 1.21272C24.0848 0.861249 23.8907 0.640923 23.4343 0.640923H23.0881V1.78452H23.4238ZM23.5497 3.35828C24.0113 3.35828 24.2999 3.17992 24.2999 2.74451C24.2999 2.30911 24.0271 2.17272 23.6126 2.17272H23.0881V3.35828H23.5497ZM27.3791 0.210849H27.0224L25.7109 3.7623H26.1883L26.5241 2.83378H27.888L28.2185 3.75181H28.7431L27.3791 0.210849ZM27.4106 1.51182L27.7411 2.43509H26.6762L27.0067 1.51707C27.1168 1.21805 27.1745 1.05019 27.2113 0.924286L27.2358 0.998411L27.2359 0.998568L27.2359 0.998671L27.236 0.998789C27.2745 1.11522 27.3252 1.26828 27.4106 1.51182ZM36.4702 0.210849H36.1188L34.7811 3.7623H35.2794L35.6152 2.83378H36.9843L37.3096 3.75181H37.8342L36.4702 0.210849ZM36.5017 1.53281L36.8322 2.45608H35.7673L36.0978 1.53805L36.3024 0.945269C36.3392 1.0436 36.3793 1.16433 36.4426 1.35494L36.4426 1.35513L36.5017 1.53281ZM38.9253 0.242296H39.3974V1.78458H39.7436C40.1335 1.78458 40.2713 1.38478 40.4111 0.979177L40.4111 0.979108C40.4594 0.838938 40.508 0.698077 40.5672 0.572785C40.6136 0.463033 40.6919 0.369793 40.7921 0.305226C40.8922 0.240659 41.0095 0.207761 41.1286 0.210821C41.2178 0.208982 41.3066 0.223197 41.3909 0.252788V0.682948C41.332 0.661587 41.2698 0.650927 41.2072 0.651473C41.153 0.649271 41.0993 0.663651 41.0534 0.692701C41.0074 0.721751 40.9715 0.764093 40.9502 0.814095C40.8962 0.913907 40.8514 1.04281 40.8038 1.17963C40.6989 1.48146 40.5806 1.82183 40.3207 1.97343C40.4938 2.03114 40.6197 2.20949 40.7718 2.49802L41.4486 3.77276H40.924L40.3207 2.62392C40.1581 2.30917 40.0269 2.199 39.9168 2.199H39.3922V3.77276H38.92L38.9253 0.242296ZM43.0695 0.242237H42.6027V3.7727H45.1784V4.75893H45.6453V3.36877H45.2151V0.242237H44.743V3.36877H43.0695V0.242237ZM46.8045 0.242336H47.2714V2.3774V2.98592C47.3868 2.81281 47.539 2.59248 47.7488 2.32494L49.3226 0.226599H49.7789V3.7728H49.3173V1.55905V0.971511C49.1966 1.14462 49.0498 1.35446 48.8557 1.61151L47.219 3.7728H46.815L46.8045 0.242336ZM55.8222 0.242237H56.2943V1.76354H58.1409V0.242237H58.613V3.7727H58.1409V2.17272H56.2943V3.7727H55.8222V0.242237ZM61.8497 0.242237H60.0713V3.7727H61.8707V3.36877H60.5487V2.17796H61.6976V1.76878H60.5487V0.651415H61.708L61.8497 0.242237ZM63.1927 0.242259H63.9114C64.1783 0.226523 64.4446 0.282681 64.6825 0.404881C64.8514 0.501978 64.99 0.644199 65.0826 0.815609C65.1753 0.987019 65.2184 1.18084 65.2071 1.37537C65.215 1.58427 65.1602 1.79075 65.0499 1.96834C64.9396 2.14593 64.7788 2.28652 64.5881 2.37208C64.3582 2.46399 64.1116 2.50687 63.8642 2.49798H63.6596V3.77273H63.1874L63.1927 0.242259ZM63.9009 2.10979C64.0657 2.11595 64.2296 2.08174 64.3783 2.01012C64.4908 1.94948 64.5828 1.85677 64.6426 1.74376C64.7023 1.63075 64.7272 1.50253 64.714 1.37537C64.7226 1.25245 64.6985 1.12946 64.6441 1.01889C64.5897 0.908318 64.5071 0.814117 64.4045 0.745862C64.2433 0.660888 64.0616 0.622727 63.8799 0.635699H63.6386V2.10979H63.9009ZM66.933 0.242237H66.4556V3.7727H66.933V2.17272H68.7795V3.7727H69.2464V0.242237H68.7795V1.76354H66.933V0.242237ZM71.6752 0.210849H72.0267L73.3958 3.75181H72.8712L72.5408 2.83378H71.1716L70.8254 3.77279H70.3008L71.6752 0.210849ZM72.3991 2.45608L72.0686 1.53281L71.8745 0.945269C71.8487 1.034 71.8097 1.14358 71.7523 1.30521L71.7521 1.30575L71.7515 1.30749L71.7514 1.30771L71.7512 1.30826C71.7274 1.37523 71.7005 1.4511 71.6699 1.53805L71.3395 2.45608H72.3991ZM75.1217 2.1623C74.9543 2.28677 74.8252 2.45583 74.7493 2.65017L74.1565 3.78852H74.7073L75.2319 2.73935C75.384 2.4246 75.5099 2.30919 75.6201 2.30919H76.1447V3.77278H76.6168V0.210841H75.6568C75.51 0.195345 75.3617 0.210978 75.2214 0.25672C75.0811 0.302461 74.952 0.377283 74.8426 0.476297C74.7332 0.575311 74.6459 0.696292 74.5864 0.831337C74.527 0.966382 74.4966 1.11245 74.4975 1.26001C74.4812 1.45938 74.5346 1.65821 74.6484 1.8227C74.7622 1.9872 74.9294 2.1072 75.1217 2.1623ZM76.1499 1.92099H75.7355C75.3316 1.92099 75.022 1.73214 75.022 1.29674C75.0186 1.20537 75.0348 1.11433 75.0695 1.02975C75.1041 0.945157 75.1566 0.868984 75.2232 0.806354C75.2898 0.743725 75.369 0.696093 75.4556 0.666665C75.5421 0.637238 75.634 0.626698 75.725 0.635756H76.1499V1.92099ZM79.8011 0.242231H80.2732V1.78451H80.6194C81.0072 1.78451 81.1456 1.38901 81.2867 0.985654C81.3365 0.843306 81.3867 0.699982 81.4483 0.57272C81.4937 0.463385 81.5711 0.370323 81.6703 0.305733C81.7695 0.241143 81.886 0.208037 82.0043 0.210755C82.0936 0.208447 82.1825 0.222675 82.2666 0.252722V0.682883C82.2098 0.660979 82.1492 0.650291 82.0883 0.651408C82.0332 0.648861 81.9787 0.663033 81.9319 0.69206C81.8851 0.721088 81.8482 0.763609 81.826 0.81403C81.7716 0.914622 81.7265 1.04476 81.6786 1.18278C81.5744 1.48381 81.4571 1.8223 81.2017 1.97337C81.3696 2.03107 81.5007 2.20943 81.6476 2.49795L82.3296 3.76745H81.805L81.1965 2.62385C81.0339 2.3091 80.9027 2.19894 80.7978 2.19894H80.2732V3.7727H79.8011V0.242231ZM83.8228 0.796526C83.4982 1.12118 83.3158 1.5615 83.3158 2.02062C83.3158 2.47975 83.4982 2.92007 83.8228 3.24472C84.1475 3.56937 84.5878 3.75176 85.0469 3.75176C85.5061 3.75176 85.9464 3.56937 86.271 3.24472C86.5957 2.92007 86.7781 2.47975 86.7781 2.02062C86.7781 1.5615 86.5957 1.12118 86.271 0.796526C85.9464 0.471875 85.5061 0.289488 85.0469 0.289488C84.5878 0.289488 84.1475 0.471875 83.8228 0.796526ZM86.224 1.50584C86.2769 1.67197 86.2941 1.84739 86.2745 2.02062C86.2941 2.19385 86.2769 2.36928 86.224 2.53541C86.1712 2.70154 86.0838 2.85463 85.9677 2.98466C85.8515 3.11469 85.7093 3.21872 85.5501 3.28996C85.391 3.36119 85.2186 3.39801 85.0443 3.39801C84.87 3.39801 84.6976 3.36119 84.5385 3.28996C84.3793 3.21872 84.2371 3.11469 84.1209 2.98466C84.0048 2.85463 83.9174 2.70154 83.8646 2.53541C83.8117 2.36928 83.7945 2.19385 83.8141 2.02062C83.7945 1.84739 83.8117 1.67197 83.8646 1.50584C83.9174 1.33971 84.0048 1.18662 84.1209 1.05659C84.2371 0.92656 84.3793 0.822523 84.5385 0.751291C84.6976 0.68006 84.87 0.643238 85.0443 0.643238C85.2186 0.643238 85.391 0.68006 85.5501 0.751291C85.7093 0.822523 85.8515 0.92656 85.9677 1.05659C86.0838 1.18662 86.1712 1.33971 86.224 1.50584ZM88.0738 0.242229H88.5145L89.4745 1.6796L89.5641 1.81524L89.5646 1.81598C89.6572 1.95588 89.7258 2.05963 89.7945 2.17271C89.8732 2.03107 89.9676 1.87369 90.104 1.64812L91.001 0.231737H91.4364V3.77269H90.9695V1.59566V1.03435C90.8961 1.17075 90.7807 1.35435 90.7177 1.45402L89.9046 2.74975H89.6686L88.7768 1.42779C88.6904 1.30505 88.6116 1.17717 88.5407 1.04485V1.56943V3.77269H88.0633L88.0738 0.242229ZM95.5544 0.242237H92.9105V3.7727H93.3774V0.651415H95.0823V3.7727H95.5544V0.242237ZM97.978 0.210849H98.3295L99.6777 3.77279H99.1531L98.8436 2.83378H97.4797L97.1439 3.7623H96.6193L97.978 0.210849ZM98.6915 2.43509L98.361 1.51182L98.1669 0.924286C98.1408 1.01359 98.1016 1.12401 98.0435 1.28737L98.0423 1.29083L98.0418 1.2923C98.0184 1.35803 97.992 1.43228 97.9623 1.51707L97.6318 2.43509H98.6915ZM101.262 0.242237H100.785V3.7727H101.262V2.17272H103.108V3.7727H103.575V0.242237H103.108V1.76354H101.262V0.242237ZM105.039 0.242336H105.511V2.3774V2.98592C105.626 2.81281 105.773 2.59248 105.983 2.32494L107.557 0.226599H108.019V3.7728H107.546V1.55905V0.971511C107.431 1.14462 107.279 1.35446 107.09 1.61151L105.448 3.7728H105.044L105.039 0.242336ZM110.101 2.16232C109.934 2.28678 109.805 2.45584 109.729 2.65019L109.141 3.78854H109.692L110.217 2.73937C110.369 2.42461 110.5 2.3092 110.605 2.3092H111.129V3.7728H111.601V0.210859H110.642C110.495 0.19615 110.347 0.212371 110.208 0.25847C110.068 0.304569 109.94 0.379515 109.831 0.478446C109.722 0.577378 109.635 0.698083 109.576 0.832731C109.517 0.967379 109.487 1.11296 109.487 1.26003C109.471 1.45803 109.522 1.65578 109.634 1.82008C109.746 1.98438 109.911 2.10523 110.101 2.16232ZM111.135 1.92101H110.694H110.678C110.274 1.92101 109.965 1.73216 109.965 1.29675C109.961 1.2029 109.977 1.10933 110.014 1.02266C110.05 0.935988 110.105 0.858355 110.174 0.795268C110.244 0.732181 110.327 0.685188 110.416 0.657623C110.506 0.630059 110.601 0.622599 110.694 0.635774H111.135V1.92101Z" fill="#E8F5F4"/>
</svg>
