<svg width="109" height="24" viewBox="0 0 109 24" fill="none" xmlns="http://www.w3.org/2000/svg">
<g clip-path="url(#clip0_0_517)">
<path d="M15.8851 0.358643H6.72407C3.01138 0.358643 -0.00683594 3.41238 -0.00683594 7.16465V16.4297C-0.00683594 20.1815 3.01138 23.2357 6.72407 23.2357H15.8847C19.5941 23.2357 22.6137 20.1815 22.6137 16.4297V7.16465C22.6142 3.41238 19.5945 0.358643 15.8851 0.358643Z" fill="#E8F5F4"/>
<path d="M18.445 14.6087L18.4366 14.7107C18.4044 15.1076 18.1584 15.5093 17.7501 15.5093C17.4378 15.5093 17.1867 15.3922 16.9819 15.1525C16.7359 14.866 16.5147 14.5219 16.2907 13.8984C16.9249 11.7211 18.8818 4.74663 18.8818 4.74663H15.1682C15.1682 4.74663 14.8252 6.38205 14.5158 7.86974C14.5004 7.8334 14.4845 7.79753 14.4682 7.76308C14.1587 7.09428 13.6645 6.3509 13.1156 5.82841C12.1589 4.9189 11.0336 4.47571 9.67504 4.47571C7.79979 4.47571 6.21344 5.17708 4.95986 6.56093C3.71234 7.93629 3.05334 9.70104 3.05334 11.6636C3.05334 13.8493 3.6792 15.6447 4.91319 16.9974C6.20037 18.411 7.73959 19.0695 9.75578 19.0695C10.9305 19.0695 12.0515 18.7164 13.0909 18.0212C13.7625 17.5728 14.3753 16.9517 14.9545 16.145C15.1976 16.9413 15.4426 17.4855 15.7357 17.8928C16.2099 18.5503 16.9203 18.9269 17.6843 18.9269C18.4795 18.9269 19.2039 18.5149 19.5758 17.8527C19.9053 17.2651 20.0397 16.5358 20.0397 15.3365V14.6087H18.445ZM12.22 16.003C11.6572 16.8365 10.9221 17.2764 10.0941 17.2764C9.12945 17.2764 8.39998 16.8393 7.8628 15.936C7.29948 14.9901 7.01432 13.5727 7.01432 11.7221C7.01432 10.0253 7.31675 8.67684 7.91274 7.71399C8.47279 6.81014 9.17472 6.38819 10.1212 6.38819C10.9636 6.38819 11.6212 6.74218 12.1929 7.5049C12.8057 8.32332 13.3238 9.67556 13.6948 11.4139C13.229 13.7639 12.7735 15.1846 12.22 16.003Z" fill="#111111"/>
<path d="M33.939 5.07804C33.6823 3.90894 32.9533 3.09241 31.3534 3.09241C29.8482 3.09241 29.0236 3.90894 28.7669 5.07804L27.6052 10.3699H28.8471C29.1304 10.3699 29.4123 10.1415 29.473 9.8616L29.7078 8.78501H32.9985L33.2338 9.8616C33.2944 10.141 33.5759 10.3699 33.8592 10.3699H35.1015L33.939 5.07804ZM30.0331 7.29354L30.4424 5.41929C30.5082 5.11627 30.7415 4.65326 31.3538 4.65326C31.9657 4.65326 32.1986 5.1158 32.2653 5.41929L32.6742 7.29354H30.0331Z" fill="#E8F5F4"/>
<path d="M38.1627 4.85994H40.9331V10.3699H42.6477V3.26416H37.4761C36.9109 3.26416 36.447 3.73237 36.447 4.30488V7.89574C36.447 8.37622 36.2281 8.68206 35.8478 8.759L35.4963 8.84395L35.8146 10.3703H36.1409C37.3142 10.3703 38.1627 9.48727 38.1627 7.98542V4.85994Z" fill="#E8F5F4"/>
<path d="M57.5531 3.2642H56.9282V2.43823H55.7278C55.4445 2.43823 55.213 2.67092 55.213 2.95789V3.2642H54.5881C52.4683 3.2642 51.1433 4.72547 51.1433 6.81683C51.1433 8.90866 52.4683 10.3699 54.5881 10.3699H55.213V11.2313H56.4134C56.6967 11.2313 56.9282 10.9972 56.9282 10.7121V10.3699H57.5531C59.6729 10.3699 60.9974 8.90866 60.9974 6.81683C60.9974 4.72547 59.6729 3.2642 57.5531 3.2642ZM54.5881 8.80058C53.4139 8.80058 52.8585 8.04918 52.8585 6.81683C52.8585 5.58542 53.4139 4.83402 54.5881 4.83402H55.213V8.80058H54.5881ZM57.5531 8.80058H56.9282V4.83402H57.5531C58.7278 4.83402 59.2813 5.58542 59.2813 6.81683C59.2813 8.04918 58.7274 8.80058 57.5531 8.80058Z" fill="#E8F5F4"/>
<path d="M47.9702 5.06623H45.5087V3.26514H43.7936V9.85026C43.7936 10.1363 44.0255 10.3704 44.3084 10.3704H47.9702C49.4655 10.3704 50.5912 9.23101 50.5912 7.71831C50.5912 6.20607 49.6466 5.06623 47.9702 5.06623ZM47.9702 8.77508H45.5087V6.66153H47.9702C48.3883 6.66153 48.8765 7.04006 48.8765 7.71783C48.8765 8.39513 48.3883 8.77508 47.9702 8.77508Z" fill="#E8F5F4"/>
<path d="M67.3942 5.07804C67.1366 3.90894 66.4081 3.09241 64.8077 3.09241C63.304 3.09241 62.4788 3.90894 62.2212 5.07804L61.0596 10.3699H62.3024C62.5848 10.3699 62.8671 10.1415 62.9269 9.8616L63.1621 8.78501H66.4533L66.6876 9.8616C66.7483 10.141 67.0302 10.3699 67.313 10.3699H68.555L67.3942 5.07804ZM63.4883 7.29354L63.8958 5.41929C63.9634 5.11627 64.1963 4.65326 64.8077 4.65326C65.4201 4.65326 65.652 5.1158 65.7197 5.41929L66.128 7.29354H63.4883Z" fill="#E8F5F4"/>
<path d="M77.3369 16.6539C77.6393 16.3528 77.8339 15.9426 77.8339 15.3739C77.8339 14.1146 76.8692 13.2339 75.6231 13.2339H71.4297C71.1469 13.2339 70.9154 13.4675 70.9154 13.754V19.8195C70.9154 20.1055 71.1469 20.3396 71.4297 20.3396L75.8877 20.3405C77.2015 20.3405 78.0738 19.39 78.0738 18.1307C78.0738 17.4968 77.776 17.0003 77.3369 16.6539ZM75.6212 14.7088C75.8495 14.7088 76.1612 14.9675 76.1612 15.4093C76.1612 15.8543 75.8495 16.0814 75.6212 16.1092H72.596V14.7084L75.6212 14.7088ZM75.7589 18.8661H72.5956V17.4643H75.7589C75.9871 17.4926 76.2984 17.7192 76.2984 18.1647C76.2984 18.606 75.9871 18.8661 75.7589 18.8661Z" fill="#E8F5F4"/>
<path d="M66.007 13.0706C63.8867 13.0706 62.4044 14.5974 62.4044 16.787C62.4044 18.9755 63.8862 20.5038 66.007 20.5038H66.5941C68.7148 20.5038 70.1966 18.9755 70.1966 16.787C70.1966 14.5974 68.7153 13.0706 66.5941 13.0706H66.007ZM64.2573 16.787C64.2573 15.5126 64.9284 14.5384 66.1106 14.5384H66.4914C67.6727 14.5384 68.3433 15.5126 68.3433 16.787C68.3433 18.0613 67.6722 19.0364 66.4914 19.0364H66.1106C64.9279 19.036 64.2573 18.0613 64.2573 16.787Z" fill="#E8F5F4"/>
<path d="M33.9977 13.2339L34.2236 14.3086C34.2838 14.5951 34.5647 14.8287 34.8476 14.8287H36.4465V20.3391H38.1621V14.8292H39.7112C39.9935 14.8292 40.274 14.5956 40.3337 14.3091L40.5596 13.2344H33.9977" fill="#E8F5F4"/>
<path d="M91.7745 13.2339V16.0554H88.4375V13.2339H86.7219V20.3396H88.4375V17.5794H91.7745V20.3396H93.4902V13.2339H91.7745Z" fill="#E8F5F4"/>
<path d="M53.9602 15.0486C53.7031 13.8791 52.9755 13.0635 51.3742 13.0635C49.8714 13.0635 49.0458 13.8795 48.7895 15.0486L47.627 20.3396H48.8693C49.1526 20.3396 49.4341 20.1121 49.4952 19.8322L49.7295 18.7551H53.0193L53.2541 19.8322C53.3143 20.1121 53.5966 20.3396 53.8799 20.3396H55.1219L53.9602 15.0486ZM50.0552 17.2632L50.4636 15.3889C50.5299 15.0864 50.7628 14.6229 51.3751 14.6229C51.9874 14.6229 52.2203 15.0864 52.2871 15.3899L52.6954 17.2627H50.0552V17.2632Z" fill="#E8F5F4"/>
<path d="M84.8024 15.0486C84.5447 13.8791 83.8171 13.0635 82.2159 13.0635C80.7116 13.0635 79.8874 13.8795 79.6303 15.0486L78.4686 20.3396H79.7115C79.9938 20.3396 80.2757 20.1121 80.3359 19.8322L80.5716 18.7551H83.8619L84.0976 19.8322C84.1588 20.1121 84.4397 20.3396 84.7221 20.3396H85.9659L84.8024 15.0486ZM80.8955 17.2632L81.3048 15.3889C81.3725 15.0864 81.6045 14.6229 82.2159 14.6229C82.8272 14.6229 83.0611 15.0864 83.1278 15.3899L83.5362 17.2627H80.8955V17.2632Z" fill="#E8F5F4"/>
<path d="M34.5316 20.3203V20.3406H31.1806C29.1518 20.3406 27.7349 18.8798 27.7349 16.787C27.7349 14.6952 29.1523 13.2344 31.1806 13.2344H33.7228L33.474 14.3232C33.4105 14.6027 33.1268 14.8297 32.8435 14.8297H31.1806C30.0964 14.8297 29.45 15.6481 29.45 16.7875C29.45 17.9264 30.096 18.7453 31.1806 18.7453H33.6574C33.9398 18.7453 34.224 18.9728 34.2875 19.2522L34.5316 20.3203Z" fill="#E8F5F4"/>
<path d="M45.1577 13.2339L41.4964 13.2344C41.2126 13.2344 40.9816 13.4685 40.9816 13.7545V20.3401H42.6972V18.5376H45.1577C46.836 18.5376 47.7801 17.3977 47.7801 15.8864C47.7801 14.3747 46.653 13.2339 45.1577 13.2339ZM45.1577 16.9427H42.6972V14.8311H45.1577C45.5763 14.8311 46.065 15.2091 46.065 15.8869C46.065 16.5637 45.5763 16.9427 45.1577 16.9427Z" fill="#E8F5F4"/>
<path d="M108.031 18.8396H104.336V17.4751H108.352V16.1045H104.336V14.7334H108.031C108.335 14.7334 108.575 14.5984 108.659 14.2265L108.888 13.2334H103.135C102.853 13.2334 102.62 13.467 102.62 13.7535V19.819C102.62 20.105 102.852 20.3401 103.135 20.3401H108.888L108.659 19.347C108.575 18.9756 108.335 18.8396 108.031 18.8396Z" fill="#E8F5F4"/>
<path d="M94.6663 20.3396V13.2339H96.3819V17.9221L99.3534 13.653C99.521 13.4227 99.8883 13.2339 100.173 13.2339H101.445V20.3396H99.7291V15.6519L96.7567 19.9205C96.59 20.1508 96.2218 20.3396 95.938 20.3396H94.6663Z" fill="#E8F5F4"/>
<path d="M60.2964 16.7492L62.6906 13.2344H61.115C60.7748 13.2344 60.5353 13.3392 60.3249 13.6728L59.0493 15.6986H58.8211L57.5447 13.6728C57.3351 13.3387 57.0961 13.2344 56.7541 13.2344H55.1276L57.5731 16.8243L55.1789 20.3396H56.7541C57.0957 20.3396 57.3351 20.2358 57.5447 19.9011L58.8211 17.8749H59.0493L60.3249 19.9011C60.5353 20.2358 60.7748 20.3396 61.115 20.3396H62.7415L60.2964 16.7492Z" fill="#E8F5F4"/>
</g>
<defs>
<clipPath id="clip0_0_517">
<rect width="108.895" height="22.8771" fill="white" transform="translate(-0.00683594 0.358643)"/>
</clipPath>
</defs>
</svg>
