<svg width="94" height="20" viewBox="0 0 94 20" fill="none" xmlns="http://www.w3.org/2000/svg">
<path fill-rule="evenodd" clip-rule="evenodd" d="M93.5096 5.76325C93.5096 2.80907 91.032 0.431908 86.0052 0.431908C80.6553 0.431908 77.9039 3.46348 77.9039 7.2097H82.8172C82.8172 5.26414 83.8864 4.24981 85.9336 4.24981C87.8725 4.24981 88.6975 4.95563 88.6975 6.07228C88.6975 7.18841 88.0871 7.94877 86.5797 7.94877L83.8003 7.95084V11.1528L86.5071 11.1507C88.2313 11.1507 88.9495 11.9074 88.9495 13.1321C88.9495 14.2846 88.1955 15.3799 86.0052 15.3799C83.6354 15.3799 82.5584 14.1558 82.5584 12.1385H77.6581C77.6581 16.7132 80.8353 19.1625 86.0052 19.1625C91.103 19.1625 93.94 17.0009 93.94 13.5429C93.94 11.7423 93.0066 10.4454 91.2114 9.68918C92.7551 8.86078 93.5091 7.34786 93.5091 5.76273L93.5096 5.76325ZM69.8063 18.6759H74.8486V0.919079H69.8063V2.86153C68.5073 1.22551 66.7951 0.553961 64.9335 0.553961C60.195 0.553961 56.421 4.25084 56.421 9.79721C56.421 15.3436 60.195 19.0405 64.9335 19.0405C66.7951 19.0405 68.5073 18.3684 69.8063 16.7329V18.6759ZM70.1573 9.79721C70.1573 12.606 68.0811 14.6622 65.5941 14.6622C63.1435 14.6622 61.0314 12.606 61.0314 9.79721C61.0314 6.98845 63.1435 4.93226 65.5947 4.93226C68.0811 4.93226 70.1573 6.98845 70.1573 9.79721ZM47.9169 5.18H55.2439V0.918559H42.8776V18.6759H47.9174L47.9169 5.18ZM40.3886 9.79721C40.3886 4.49079 36.1417 0.188843 30.9034 0.188843C25.6645 0.188843 21.4181 4.49079 21.4181 9.79721C21.4181 15.1036 25.665 19.4056 30.9034 19.4056C36.1422 19.4056 40.3886 15.1036 40.3886 9.79721ZM36.3035 10.7165C33.396 11.4156 31.3711 13.921 30.9034 17.9565C30.4356 13.921 28.4107 11.4156 25.5032 10.7165C25.0033 7.55768 27.7563 4.79515 30.9034 4.79047C34.0504 4.79515 36.8034 7.55768 36.3035 10.7165ZM5.20833 9.79721C5.20833 6.9147 7.12955 4.56714 9.89081 4.56714C12.0122 4.56714 13.7732 5.743 14.2134 7.48601H19.0162C18.7673 3.44218 15.1209 0.188843 10.0018 0.188843C4.63897 0.188843 0.601562 4.14489 0.601562 9.79877C0.601562 15.4532 4.63897 19.4056 10.0018 19.4056C15.2106 19.4056 18.8917 16.1673 19.0162 11.7433H14.2134C13.839 13.7657 12.1724 15.0268 9.89133 15.0268C7.36964 15.0268 5.20833 12.754 5.20833 9.79721Z" fill="#000E0D"/>
</svg>
