<svg width="70" height="20" viewBox="0 0 70 20" fill="none" xmlns="http://www.w3.org/2000/svg">
<g clip-path="url(#clip0_0_89)">
<path d="M33.3304 2.6607C32.8938 1.98293 32.2983 1.46464 31.4648 1.10582C30.6709 0.746999 29.7182 0.587524 28.6465 0.587524H24.3198V13.0664H26.7809V9.51812H28.6465C29.7182 9.51812 30.6709 9.31878 31.4648 8.99983C32.2587 8.64101 32.8938 8.12272 33.3304 7.44495C33.767 6.76718 33.9655 5.9698 33.9655 5.05282C33.9655 4.13584 33.7273 3.33847 33.3304 2.6607ZM31.4648 5.05282C31.4648 5.81033 31.2266 6.36849 30.7106 6.80705C30.2343 7.20574 29.4801 7.40508 28.5274 7.40508H26.7412V2.70057H28.5274C29.4801 2.70057 30.2343 2.89991 30.7106 3.2986C31.2266 3.69729 31.4648 4.29532 31.4648 5.05282Z" fill="#000E0D"/>
<path d="M37.5776 10.9534V7.7639H42.6982V5.69072H37.5776V2.6607H43.4523V0.587524H35.1166V13.0664H43.6905V10.9534H37.5776Z" fill="#000E0D"/>
<path d="M53.2171 10.2756C52.5026 10.754 51.7087 11.0331 50.7958 11.0331C49.9622 11.0331 49.2477 10.8337 48.5729 10.4749C47.9378 10.1161 47.4218 9.59781 47.0645 8.95991C46.7073 8.32201 46.5088 7.60438 46.5088 6.76713C46.5088 5.96976 46.7073 5.21225 47.0645 4.57435C47.4218 3.93645 47.9378 3.41816 48.5729 3.05934C49.208 2.70052 49.9622 2.50118 50.7958 2.50118C51.6293 2.50118 52.4232 2.74039 53.0583 3.13908L54.4873 1.42472C54.1698 1.18551 53.8125 1.02604 53.4553 0.86656C52.6217 0.507742 51.669 0.348267 50.6767 0.348267C49.4462 0.348267 48.295 0.627348 47.263 1.18551C46.2706 1.74367 45.437 2.50118 44.8813 3.45803C44.2859 4.41488 44.0081 5.5312 44.0081 6.76713C44.0081 8.00306 44.2859 9.07952 44.8813 10.0762C45.437 11.0331 46.2706 11.8305 47.263 12.3488C48.2553 12.9069 49.4065 13.186 50.6767 13.186C51.669 13.186 52.6217 12.9867 53.4553 12.6677C53.8522 12.5082 54.2492 12.269 54.5667 12.0298L53.2171 10.2756Z" fill="#000E0D"/>
<path d="M66.9513 3.49795C66.3559 2.5411 65.562 1.74372 64.5696 1.22543C63.5773 0.667265 62.4261 0.388184 61.1559 0.388184C59.8857 0.388184 58.7346 0.667265 57.7422 1.22543C56.7499 1.78359 55.9163 2.5411 55.3606 3.53781C54.7652 4.49466 54.4873 5.61099 54.4873 6.80705C54.4873 8.00311 54.7652 9.11944 55.3606 10.0763C55.956 11.073 56.7499 11.8305 57.7422 12.3887C58.7346 12.9468 59.8857 13.2259 61.1559 13.2259C62.4261 13.2259 63.5773 12.9468 64.5696 12.3887C65.6017 11.8305 66.3956 11.073 66.9513 10.1162C67.5467 9.15931 67.8245 8.04298 67.8245 6.80705C67.8245 5.61099 67.5467 4.49466 66.9513 3.49795ZM65.3635 6.80705C65.3635 7.60443 65.165 8.32206 64.8078 8.99983C64.4505 9.63773 63.9345 10.156 63.2994 10.5148C62.6643 10.8737 61.9498 11.073 61.1559 11.073C60.362 11.073 59.6475 10.8737 59.0124 10.5148C58.3773 10.156 57.8613 9.63773 57.5041 8.99983C57.1468 8.36193 56.9483 7.64429 56.9483 6.80705C56.9483 6.00968 57.1468 5.29204 57.5041 4.61427C57.8613 3.97637 58.3773 3.45808 59.0124 3.09926C59.6475 2.74044 60.362 2.5411 61.1559 2.5411C61.9498 2.5411 62.6643 2.74044 63.2994 3.09926C63.9345 3.45808 64.4505 3.97637 64.8078 4.61427C65.165 5.29204 65.3635 6.00968 65.3635 6.80705Z" fill="#000E0D"/>
<path d="M26.3839 16.9735H25.1137V19.1663H24.3198V16.3356H26.3839V16.9735Z" fill="#000E0D"/>
<path d="M31.306 18.6081H30.1152L29.877 19.1663H29.0435L30.3137 16.3356H31.1076L32.3778 19.1663H31.5442L31.306 18.6081ZM31.0679 18.0101L30.7106 17.0931L30.3534 18.0101H31.0679Z" fill="#000E0D"/>
<path d="M37.2998 16.4552C37.4982 16.5349 37.6173 16.6545 37.7364 16.814C37.8555 16.9735 37.8952 17.1728 37.8952 17.3722C37.8952 17.5715 37.8555 17.7708 37.7364 17.9303C37.6173 18.0898 37.4982 18.2094 37.2998 18.2891C37.1013 18.3689 36.9028 18.4087 36.625 18.4087H36.1486V19.1663H35.3547V16.3356H36.6646C36.8631 16.3356 37.1013 16.3754 37.2998 16.4552ZM36.9425 17.6911C37.0219 17.6114 37.0616 17.5316 37.0616 17.3722C37.0616 17.2526 37.0219 17.1329 36.9425 17.0532C36.8631 16.9735 36.744 16.9336 36.5853 16.9336H36.1486V17.7708H36.5853C36.744 17.7708 36.8631 17.7708 36.9425 17.6911Z" fill="#000E0D"/>
<path d="M42.9364 18.6081H41.7456L41.5074 19.1663H40.6738L41.944 16.3356H42.7379L44.0081 19.1663H43.1746L42.9364 18.6081ZM42.6982 18.0101L42.341 17.0931L41.9837 18.0101H42.6982Z" fill="#000E0D"/>
<path d="M49.9622 16.3356V19.1663H49.1684V18.0499H48.0966V19.1663H47.3027V16.3356H48.0966V17.3722H49.1684V16.3356H49.9622Z" fill="#000E0D"/>
<path d="M55.7973 16.9735H54.924V19.1663H54.1301V16.9735H53.2568V16.3356H55.7973V16.9735Z" fill="#000E0D"/>
<path d="M58.9331 16.3356H59.6873V18.0101L60.8781 16.3356H61.6323V19.1663H60.8384V17.4918L59.6873 19.1663H58.9331V16.3356Z" fill="#000E0D"/>
<path d="M66.9117 16.3356V19.1663H66.1178V18.4486H65.6811L65.2048 19.1663H64.3712L64.927 18.329C64.7285 18.2493 64.6094 18.1297 64.4903 17.9702C64.4109 17.8107 64.3315 17.6114 64.3315 17.412C64.3315 17.1728 64.3712 17.0133 64.4903 16.8539C64.6094 16.6944 64.7285 16.5748 64.927 16.495C65.1254 16.4153 65.3239 16.3754 65.6018 16.3754H66.9117V16.3356ZM65.1651 17.3722C65.1651 17.5316 65.2048 17.6114 65.2842 17.6911C65.3636 17.7708 65.4827 17.8107 65.6415 17.8107H66.1178V16.9336H65.6415C65.3239 16.9735 65.1651 17.0931 65.1651 17.3722Z" fill="#000E0D"/>
<path d="M20.5885 13.1063L20.4695 11.9501C20.2313 9.75729 19.5168 8.00306 18.4451 6.64753C17.4527 5.41159 16.1825 4.49461 14.5947 3.85671V0.547607L13.4436 0.667214C11.2604 0.906426 9.51387 1.62406 8.16427 2.70052C6.93375 3.69724 6.02079 4.97304 5.38568 6.56779H2.09106L2.21015 7.72398C2.44831 9.91676 3.16281 11.671 4.23455 13.0265C5.2269 14.2625 6.49712 15.1794 8.08488 15.8173V19.1264L9.23601 19.0068C11.4192 18.7676 13.1657 18.05 14.5153 16.9735C15.7459 15.9768 16.6588 14.701 17.2939 13.1063H20.5885ZM13.2848 15.3788C12.4512 16.0565 11.4192 16.535 10.149 16.8141V10.0364H8.08488V13.6644C7.17192 13.186 6.41773 12.588 5.82231 11.8305C5.14751 10.9932 4.67118 9.95663 4.39333 8.68083H11.181V6.64753H7.56886C8.04519 5.73054 8.6406 4.97304 9.39479 4.37501C10.2284 3.69724 11.2604 3.21881 12.5306 2.93973V9.83702H14.555V6.12923C15.468 6.60766 16.2222 7.20569 16.8176 7.96319C17.4924 8.80044 17.9687 9.83702 18.2466 11.1128H11.5383V13.1461H15.0711C14.6344 14.0232 14.039 14.7807 13.2848 15.3788Z" fill="#000E0D"/>
</g>
<defs>
<clipPath id="clip0_0_89">
<rect width="68.6312" height="19.2167" fill="white" transform="translate(0.939941 0.188843)"/>
</clipPath>
</defs>
</svg>
