<svg width="190" height="20" viewBox="0 0 190 20" fill="none" xmlns="http://www.w3.org/2000/svg">
<path d="M18.2387 19.1122H13.9902V6.88781L4.66414 19.1122H0.571045V0.482228H4.87138V12.7066L14.2492 0.482228H18.2387V19.1122ZM21.3474 0.531126H25.6995V7.86576H34.4038V0.531126H38.756V19.1122H34.4038V11.6309H25.6995V19.1122H21.3474V0.531126ZM46.165 19.1122H41.8646V0.482228H55.232V4.19844H46.165V19.1122ZM76.1119 9.82166C76.1119 4.14954 71.7598 0.286638 65.7496 0.188843H65.646C59.6359 0.23774 55.2838 4.14954 55.2838 9.77276C55.2838 15.4449 59.6359 19.3078 65.646 19.3567H65.7496C71.7598 19.3567 76.1119 15.4449 76.1119 9.82166ZM65.6978 15.6405C62.2265 15.6405 59.7914 13.3912 59.7914 9.82166C59.7914 6.20324 62.2265 4.00285 65.6978 4.00285C69.1692 4.00285 71.6043 6.25214 71.6043 9.82166C71.6043 13.3912 69.1692 15.6405 65.6978 15.6405ZM121.447 4.29624H115.074V0.531126H132.12V4.29624H125.799V19.1122H121.447V4.29624ZM134.762 0.531126H143.622C148.337 0.531126 151.186 3.17159 151.186 6.9856C151.186 11.2886 147.663 13.5379 143.208 13.5379H139.114V19.1122H134.762V0.531126ZM143.311 9.87055C145.487 9.87055 146.731 8.64812 146.731 6.9856C146.731 5.17639 145.384 4.14954 143.208 4.14954H139.063V9.82166H143.311V9.87055ZM189.993 19.1122L182.999 9.57717L189.682 0.482228H184.708L180.512 6.20324L176.315 0.482228H171.186L177.921 9.67496L170.927 19.1122H175.9L180.408 13L184.864 19.1122H189.993ZM166.056 19.1122H170.46L162.015 0.384433H158.026L149.58 19.1122H153.984L155.849 14.8092H164.191L166.056 19.1122ZM157.404 11.1908L160.046 5.37198L162.689 11.1908H157.404ZM88.3912 15.6405C84.9198 15.6405 82.4847 13.3912 82.4847 9.82166C82.4847 6.20324 84.9198 4.00285 88.3912 4.00285C90.2046 4.00285 91.7071 4.49183 93.0024 5.51867L95.6966 2.976C93.8832 1.31349 91.4481 0.23774 88.443 0.23774H88.3394C82.3293 0.286638 77.9771 4.19844 77.9771 9.82166C77.9771 15.4938 82.3293 19.3567 88.3394 19.4056H88.443C91.3962 19.3567 93.8314 18.2809 95.6966 16.6673L93.0024 14.1246C91.7071 15.1515 90.2046 15.6405 88.3912 15.6405ZM106.473 15.6405C103.002 15.6405 100.567 13.3912 100.567 9.82166C100.567 6.20324 103.002 4.00285 106.473 4.00285C108.287 4.00285 109.789 4.49183 111.085 5.51867L113.779 2.976C111.965 1.31349 109.53 0.23774 106.525 0.23774H106.422C100.411 0.286638 96.0592 4.19844 96.0592 9.82166C96.0592 15.4938 100.411 19.3567 106.422 19.4056H106.525C109.478 19.3567 111.914 18.2809 113.779 16.6673L111.085 14.1246C109.789 15.1515 108.287 15.6405 106.473 15.6405Z" fill="#000E0D"/>
</svg>
