<svg width="94" height="20" viewBox="0 0 94 20" fill="none" xmlns="http://www.w3.org/2000/svg">
<path fill-rule="evenodd" clip-rule="evenodd" d="M93.5095 5.76325C93.5095 2.80907 91.0319 0.431908 86.0051 0.431908C80.6553 0.431908 77.9039 3.46348 77.9039 7.2097H82.8171C82.8171 5.26414 83.8863 4.24981 85.9336 4.24981C87.8724 4.24981 88.6974 4.95563 88.6974 6.07228C88.6974 7.18841 88.0871 7.94877 86.5797 7.94877L83.8003 7.95084V11.1528L86.5071 11.1507C88.2312 11.1507 88.9494 11.9074 88.9494 13.1321C88.9494 14.2846 88.1955 15.3799 86.0051 15.3799C83.6354 15.3799 82.5583 14.1558 82.5583 12.1385H77.6581C77.6581 16.7132 80.8352 19.1625 86.0051 19.1625C91.103 19.1625 93.9399 17.0009 93.9399 13.5429C93.9399 11.7423 93.0065 10.4454 91.2113 9.68918C92.755 8.86078 93.509 7.34786 93.509 5.76273L93.5095 5.76325ZM69.8062 18.6759H74.8486V0.919079H69.8062V2.86153C68.5073 1.22551 66.795 0.553961 64.9334 0.553961C60.195 0.553961 56.421 4.25084 56.421 9.79721C56.421 15.3436 60.195 19.0405 64.9334 19.0405C66.795 19.0405 68.5073 18.3684 69.8062 16.7329V18.6759ZM70.1573 9.79721C70.1573 12.606 68.081 14.6622 65.5941 14.6622C63.1434 14.6622 61.0314 12.606 61.0314 9.79721C61.0314 6.98845 63.1434 4.93226 65.5946 4.93226C68.081 4.93226 70.1573 6.98845 70.1573 9.79721ZM47.9168 5.18H55.2439V0.918559H42.8776V18.6759H47.9173L47.9168 5.18ZM40.3886 9.79721C40.3886 4.49079 36.1417 0.188843 30.9033 0.188843C25.6644 0.188843 21.418 4.49079 21.418 9.79721C21.418 15.1036 25.6649 19.4056 30.9033 19.4056C36.1422 19.4056 40.3886 15.1036 40.3886 9.79721ZM36.3034 10.7165C33.396 11.4156 31.371 13.921 30.9033 17.9565C30.4356 13.921 28.4106 11.4156 25.5032 10.7165C25.0033 7.55768 27.7562 4.79515 30.9033 4.79047C34.0504 4.79515 36.8033 7.55768 36.3034 10.7165ZM5.20827 9.79721C5.20827 6.9147 7.12949 4.56714 9.89075 4.56714C12.0121 4.56714 13.7731 5.743 14.2134 7.48601H19.0161C18.7672 3.44218 15.1208 0.188843 10.0017 0.188843C4.63891 0.188843 0.601501 4.14489 0.601501 9.79877C0.601501 15.4532 4.63891 19.4056 10.0017 19.4056C15.2105 19.4056 18.8917 16.1673 19.0161 11.7433H14.2134C13.839 13.7657 12.1724 15.0268 9.89127 15.0268C7.36957 15.0268 5.20827 12.754 5.20827 9.79721Z" fill="#E8F5F4"/>
</svg>
