<svg width="109" height="24" viewBox="0 0 109 24" fill="none" xmlns="http://www.w3.org/2000/svg">
<g clip-path="url(#clip0_0_67)">
<path d="M15.8851 0.358643H6.72407C3.01138 0.358643 -0.00683594 3.41238 -0.00683594 7.16465V16.4297C-0.00683594 20.1815 3.01138 23.2357 6.72407 23.2357H15.8847C19.5941 23.2357 22.6137 20.1815 22.6137 16.4297V7.16465C22.6142 3.41238 19.5945 0.358643 15.8851 0.358643Z" fill="#000E0D"/>
<path d="M18.4451 14.6087L18.4367 14.7107C18.4045 15.1076 18.1585 15.5093 17.7501 15.5093C17.4379 15.5093 17.1868 15.3922 16.9819 15.1525C16.736 14.866 16.5147 14.5219 16.2907 13.8984C16.925 11.7211 18.8819 4.74663 18.8819 4.74663H15.1683C15.1683 4.74663 14.8252 6.38205 14.5158 7.86974C14.5004 7.8334 14.4845 7.79753 14.4682 7.76308C14.1588 7.09428 13.6645 6.3509 13.1157 5.82841C12.1589 4.9189 11.0337 4.47571 9.6751 4.47571C7.79985 4.47571 6.2135 5.17708 4.95992 6.56093C3.7124 7.93629 3.05341 9.70104 3.05341 11.6636C3.05341 13.8493 3.67926 15.6447 4.91325 16.9974C6.20044 18.411 7.73965 19.0695 9.75584 19.0695C10.9305 19.0695 12.0516 18.7164 13.091 18.0212C13.7625 17.5728 14.3753 16.9517 14.9545 16.145C15.1977 16.9413 15.4427 17.4855 15.7358 17.8928C16.21 18.5503 16.9203 18.9269 17.6843 18.9269C18.4796 18.9269 19.2039 18.5149 19.5759 17.8527C19.9054 17.2651 20.0398 16.5358 20.0398 15.3365V14.6087H18.4451ZM12.2201 16.003C11.6572 16.8365 10.9221 17.2764 10.0942 17.2764C9.12951 17.2764 8.40004 16.8393 7.86286 15.936C7.29954 14.9901 7.01438 13.5727 7.01438 11.7221C7.01438 10.0253 7.31681 8.67684 7.9128 7.71399C8.47285 6.81014 9.17478 6.38819 10.1213 6.38819C10.9637 6.38819 11.6213 6.74218 12.193 7.5049C12.8058 8.32332 13.3238 9.67556 13.6949 11.4139C13.2291 13.7639 12.7736 15.1846 12.2201 16.003Z" fill="#E2F7F6"/>
<path d="M33.9389 5.07804C33.6822 3.90894 32.9532 3.09241 31.3533 3.09241C29.8482 3.09241 29.0235 3.90894 28.7668 5.07804L27.6052 10.3699H28.8471C29.1304 10.3699 29.4123 10.1415 29.4729 9.8616L29.7077 8.78501H32.9985L33.2337 9.8616C33.2944 10.141 33.5758 10.3699 33.8591 10.3699H35.1015L33.9389 5.07804ZM30.033 7.29354L30.4423 5.41929C30.5081 5.11627 30.7415 4.65326 31.3538 4.65326C31.9656 4.65326 32.1985 5.1158 32.2653 5.41929L32.6741 7.29354H30.033Z" fill="#000E0D"/>
<path d="M38.1627 4.85994H40.9331V10.3699H42.6477V3.26416H37.4761C36.9109 3.26416 36.447 3.73237 36.447 4.30488V7.89574C36.447 8.37622 36.2281 8.68206 35.8478 8.759L35.4963 8.84395L35.8146 10.3703H36.1409C37.3142 10.3703 38.1627 9.48727 38.1627 7.98542V4.85994Z" fill="#000E0D"/>
<path d="M57.5531 3.2642H56.9281V2.43823H55.7277C55.4445 2.43823 55.213 2.67092 55.213 2.95789V3.2642H54.588C52.4682 3.2642 51.1432 4.72547 51.1432 6.81683C51.1432 8.90866 52.4682 10.3699 54.588 10.3699H55.213V11.2313H56.4133C56.6966 11.2313 56.9281 10.9972 56.9281 10.7121V10.3699H57.5531C59.6729 10.3699 60.9974 8.90866 60.9974 6.81683C60.9974 4.72547 59.6729 3.2642 57.5531 3.2642ZM54.588 8.80058C53.4138 8.80058 52.8584 8.04918 52.8584 6.81683C52.8584 5.58542 53.4138 4.83402 54.588 4.83402H55.213V8.80058H54.588ZM57.5531 8.80058H56.9281V4.83402H57.5531C58.7278 4.83402 59.2813 5.58542 59.2813 6.81683C59.2813 8.04918 58.7273 8.80058 57.5531 8.80058Z" fill="#000E0D"/>
<path d="M47.9701 5.06623H45.5087V3.26514H43.7935V9.85026C43.7935 10.1363 44.0255 10.3704 44.3083 10.3704H47.9701C49.4655 10.3704 50.5912 9.23101 50.5912 7.71831C50.5912 6.20607 49.6465 5.06623 47.9701 5.06623ZM47.9701 8.77508H45.5087V6.66153H47.9701C48.3883 6.66153 48.8765 7.04006 48.8765 7.71783C48.8765 8.39513 48.3883 8.77508 47.9701 8.77508Z" fill="#000E0D"/>
<path d="M67.3941 5.07804C67.1365 3.90894 66.408 3.09241 64.8076 3.09241C63.3039 3.09241 62.4787 3.90894 62.2211 5.07804L61.0594 10.3699H62.3023C62.5847 10.3699 62.867 10.1415 62.9268 9.8616L63.162 8.78501H66.4532L66.6875 9.8616C66.7482 10.141 67.0301 10.3699 67.3129 10.3699H68.5548L67.3941 5.07804ZM63.4882 7.29354L63.8957 5.41929C63.9633 5.11627 64.1962 4.65326 64.8076 4.65326C65.4199 4.65326 65.6519 5.1158 65.7196 5.41929L66.1279 7.29354H63.4882Z" fill="#000E0D"/>
<path d="M77.3369 16.6539C77.6394 16.3528 77.834 15.9426 77.834 15.3739C77.834 14.1146 76.8693 13.2339 75.6232 13.2339H71.4298C71.147 13.2339 70.9155 13.4675 70.9155 13.754V19.8195C70.9155 20.1055 71.147 20.3396 71.4298 20.3396L75.8878 20.3405C77.2016 20.3405 78.0739 19.39 78.0739 18.1307C78.0739 17.4968 77.7761 17.0003 77.3369 16.6539ZM75.6213 14.7088C75.8495 14.7088 76.1613 14.9675 76.1613 15.4093C76.1613 15.8543 75.8495 16.0814 75.6213 16.1092H72.5961V14.7084L75.6213 14.7088ZM75.759 18.8661H72.5956V17.4643H75.759C75.9872 17.4926 76.2985 17.7192 76.2985 18.1647C76.2985 18.606 75.9872 18.8661 75.759 18.8661Z" fill="#000E0D"/>
<path d="M66.0071 13.0706C63.8868 13.0706 62.4045 14.5974 62.4045 16.787C62.4045 18.9755 63.8864 20.5038 66.0071 20.5038H66.5942C68.7149 20.5038 70.1967 18.9755 70.1967 16.787C70.1967 14.5974 68.7154 13.0706 66.5942 13.0706H66.0071ZM64.2574 16.787C64.2574 15.5126 64.9285 14.5384 66.1107 14.5384H66.4915C67.6728 14.5384 68.3434 15.5126 68.3434 16.787C68.3434 18.0613 67.6723 19.0364 66.4915 19.0364H66.1107C64.9281 19.036 64.2574 18.0613 64.2574 16.787Z" fill="#000E0D"/>
<path d="M33.9977 13.2339L34.2236 14.3086C34.2838 14.5951 34.5648 14.8287 34.8476 14.8287H36.4466V20.3391H38.1622V14.8292H39.7112C39.9936 14.8292 40.2741 14.5956 40.3338 14.3091L40.5597 13.2344H33.9977" fill="#000E0D"/>
<path d="M91.7747 13.2339V16.0554H88.4377V13.2339H86.722V20.3396H88.4377V17.5794H91.7747V20.3396H93.4903V13.2339H91.7747Z" fill="#000E0D"/>
<path d="M53.9603 15.0486C53.7032 13.8791 52.9756 13.0635 51.3743 13.0635C49.8715 13.0635 49.0459 13.8795 48.7897 15.0486L47.6271 20.3396H48.8695C49.1528 20.3396 49.4342 20.1121 49.4953 19.8322L49.7296 18.7551H53.0194L53.2542 19.8322C53.3144 20.1121 53.5968 20.3396 53.8801 20.3396H55.122L53.9603 15.0486ZM50.0554 17.2632L50.4637 15.3889C50.53 15.0864 50.7629 14.6229 51.3752 14.6229C51.9876 14.6229 52.2204 15.0864 52.2872 15.3899L52.6956 17.2627H50.0554V17.2632Z" fill="#000E0D"/>
<path d="M84.8024 15.0486C84.5448 13.8791 83.8172 13.0635 82.2159 13.0635C80.7117 13.0635 79.8875 13.8795 79.6303 15.0486L78.4687 20.3396H79.7115C79.9939 20.3396 80.2758 20.1121 80.336 19.8322L80.5717 18.7551H83.862L84.0977 19.8322C84.1588 20.1121 84.4398 20.3396 84.7221 20.3396H85.9659L84.8024 15.0486ZM80.8956 17.2632L81.3049 15.3889C81.3726 15.0864 81.6045 14.6229 82.2159 14.6229C82.8273 14.6229 83.0611 15.0864 83.1279 15.3899L83.5362 17.2627H80.8956V17.2632Z" fill="#000E0D"/>
<path d="M34.5316 20.3203V20.3406H31.1806C29.1519 20.3406 27.7349 18.8798 27.7349 16.787C27.7349 14.6952 29.1523 13.2344 31.1806 13.2344H33.7228L33.4741 14.3232C33.4106 14.6027 33.1268 14.8297 32.8435 14.8297H31.1806C30.0965 14.8297 29.4501 15.6481 29.4501 16.7875C29.4501 17.9264 30.096 18.7453 31.1806 18.7453H33.6575C33.9398 18.7453 34.2241 18.9728 34.2875 19.2522L34.5316 20.3203Z" fill="#000E0D"/>
<path d="M45.1577 13.2339L41.4964 13.2344C41.2126 13.2344 40.9816 13.4685 40.9816 13.7545V20.3401H42.6972V18.5376H45.1577C46.836 18.5376 47.7801 17.3977 47.7801 15.8864C47.7801 14.3747 46.653 13.2339 45.1577 13.2339ZM45.1577 16.9427H42.6972V14.8311H45.1577C45.5763 14.8311 46.065 15.2091 46.065 15.8869C46.065 16.5637 45.5763 16.9427 45.1577 16.9427Z" fill="#000E0D"/>
<path d="M108.031 18.8396H104.336V17.4751H108.352V16.1045H104.336V14.7334H108.031C108.335 14.7334 108.575 14.5984 108.659 14.2265L108.888 13.2334H103.135C102.853 13.2334 102.621 13.467 102.621 13.7535V19.819C102.621 20.105 102.852 20.3401 103.135 20.3401H108.888L108.659 19.347C108.575 18.9756 108.335 18.8396 108.031 18.8396Z" fill="#000E0D"/>
<path d="M94.6664 20.3396V13.2339H96.382V17.9221L99.3536 13.653C99.5211 13.4227 99.8884 13.2339 100.174 13.2339H101.445V20.3396H99.7293V15.6519L96.7568 19.9205C96.5902 20.1508 96.2219 20.3396 95.9382 20.3396H94.6664Z" fill="#000E0D"/>
<path d="M60.2964 16.7492L62.6906 13.2344H61.115C60.7748 13.2344 60.5353 13.3392 60.3249 13.6728L59.0493 15.6986H58.8211L57.5447 13.6728C57.3351 13.3387 57.0961 13.2344 56.7541 13.2344H55.1276L57.5731 16.8243L55.1789 20.3396H56.7541C57.0957 20.3396 57.3351 20.2358 57.5447 19.9011L58.8211 17.8749H59.0493L60.3249 19.9011C60.5353 20.2358 60.7748 20.3396 61.115 20.3396H62.7415L60.2964 16.7492Z" fill="#000E0D"/>
</g>
<defs>
<clipPath id="clip0_0_67">
<rect width="108.895" height="22.8771" fill="white" transform="translate(-0.00683594 0.358643)"/>
</clipPath>
</defs>
</svg>
