<svg width="36" height="36" viewBox="0 0 36 36" fill="none" xmlns="http://www.w3.org/2000/svg">
<path d="M0 24.7731V26.5535C0 26.8877 0.402446 27.0547 0.634655 26.8145C5.46036 21.8185 15.7198 14.218 34.2207 12.9567C34.8007 12.9173 35.256 12.4409 35.256 11.8598V0.947075C35.256 0.382411 34.7697 -0.0561241 34.2083 0.00584683C30.0373 0.464067 14.2679 3.11788 2.54773 17.6008C0.90514 19.6309 0 22.1615 0 24.7731Z" fill="#000E0D"/>
<path d="M0 29.4665V35.1973C0 35.641 0.359431 36 0.80307 36H34.4533C34.8965 36 35.256 35.641 35.256 35.1973V19.9386C35.256 19.3554 34.7879 18.8833 34.2047 18.8833C29.7909 18.8818 12.4372 19.4615 0.610231 28.2358C0.223095 28.5234 0 28.9838 0 29.4665Z" fill="#000E0D"/>
</svg>
