<svg width="64" height="42" viewBox="0 0 64 42" fill="none" xmlns="http://www.w3.org/2000/svg">
<g clip-path="url(#clip0_0_163)">
<path d="M39.1476 7.17832H31.9621L25.1365 14.0993V0.263146H19.5738V3.61542C19.3907 3.39896 19.2013 3.18834 18.9866 2.97773C17.0039 1.0003 14.0994 -0.00012207 10.3931 -0.00012207C6.09945 -0.00012207 3.66219 1.755 2.37411 3.27025C1.58885 4.1585 1.01939 5.19311 0.704497 6.30364C0.389606 7.41416 0.336682 8.57451 0.549329 9.70569C1.81215 15.0354 7.17285 15.8896 11.0939 16.3634C14.1942 16.732 17.1555 17.2585 17.0734 19.8152C16.9913 22.4654 13.7648 23.1206 11.6433 23.1206C6.1247 23.1206 5.96054 19.3413 5.96054 19.3413H0C0.10063 21.426 0.95963 23.4179 2.43725 24.9928C4.50197 27.1457 7.57695 28.228 11.6433 28.228C14.5393 28.2822 17.3579 27.359 19.5738 25.6305V27.918H25.1113V21.3831L27.0687 19.3998L32.663 27.918H39.1476L30.9961 15.4449L39.1476 7.17832ZM6.09313 8.52976C5.60063 6.55232 7.73481 4.7972 10.513 4.7972C12.9945 4.7972 15.4886 5.31789 16.4357 8.52391H19.5927V13.4207C15.6275 10.396 7.02131 12.2857 6.09313 8.52976Z" fill="#000E0D"/>
<path d="M6.47198 35.0438C6.39431 34.9234 6.30781 34.808 6.2131 34.6986C6.09359 34.5884 5.96001 34.4921 5.81531 34.4119C5.64136 34.3171 5.45448 34.2443 5.25967 34.1955C5.00949 34.1403 4.75277 34.1148 4.49566 34.1194C4.34967 34.1207 4.20402 34.1324 4.05998 34.1545C3.88344 34.1977 3.71042 34.2525 3.54222 34.3183C3.35189 34.4173 3.17218 34.5329 3.00552 34.6635C2.81926 34.8319 2.66739 35.0301 2.55722 35.2485C2.39808 35.5117 2.28311 35.7958 2.21626 36.091C2.12926 36.4757 2.08902 36.8681 2.09629 37.2611C2.08843 37.7046 2.14363 38.1472 2.26046 38.5774C2.3527 38.9289 2.51316 39.262 2.73402 39.5603C2.93645 39.8074 3.19797 40.0077 3.49802 40.1453C3.80689 40.2916 4.14881 40.3677 4.49566 40.3676C4.85443 40.3776 5.21148 40.3178 5.5438 40.1921C5.78457 40.0799 5.99913 39.9249 6.17521 39.7358C6.33673 39.5654 6.45918 39.3664 6.53512 39.1508C6.60731 38.9861 6.67053 38.8182 6.72454 38.6476H8.75138C8.66599 39.1724 8.48221 39.6792 8.20836 40.1453C7.96616 40.5395 7.64717 40.8886 7.26756 41.175C6.89522 41.4573 6.46593 41.6681 6.00473 41.7951C5.52911 41.9351 5.03254 42.0042 4.53354 41.9999C3.86928 42.0094 3.20984 41.894 2.5951 41.6606C2.05158 41.4491 1.56771 41.1249 1.18074 40.7128C0.799491 40.2634 0.518338 39.7484 0.353589 39.1976C0.140785 38.5633 0.038475 37.9017 0.0505113 37.2377C0.0440978 36.7279 0.10345 36.2192 0.227307 35.7224C0.324056 35.3015 0.485669 34.8956 0.707181 34.5172C0.900812 34.1809 1.14769 33.8732 1.43962 33.6046C1.70808 33.3534 2.01692 33.1422 2.35517 32.9786C2.68118 32.8109 3.02924 32.6831 3.39068 32.5983C3.75324 32.5217 4.12381 32.4825 4.49566 32.4813C4.97217 32.4762 5.44745 32.5273 5.91002 32.6334C6.292 32.7302 6.65908 32.8717 7.00237 33.0546C7.29494 33.2128 7.56087 33.4099 7.79163 33.6397C7.99916 33.8466 8.18128 34.0742 8.33465 34.3183C8.45958 34.5463 8.56513 34.783 8.65035 35.0262C8.71481 35.2422 8.75501 35.4637 8.77032 35.6873H6.73086L6.63615 35.3831C6.58818 35.2673 6.53338 35.154 6.47198 35.0438Z" fill="#000E0D"/>
<path d="M14.4214 35.0554H16.9471L13.9479 37.8461L17.0481 41.7717H14.5982L12.4704 38.9284L11.7064 39.648V41.7717H9.81213V35.0554H11.7064V37.6062L14.4214 35.0554Z" fill="#000E0D"/>
<path d="M17.162 36.9861C17.3142 36.5617 17.5666 36.174 17.9007 35.8512C18.2311 35.5279 18.6313 35.2728 19.0751 35.1023C19.5649 34.9211 20.0885 34.8316 20.6158 34.8391C21.1513 34.8316 21.6832 34.921 22.1817 35.1023C22.6308 35.2669 23.0343 35.5228 23.3624 35.8512C23.6879 36.1801 23.9391 36.566 24.1012 36.9861C24.2707 37.4454 24.354 37.9283 24.3474 38.4136C24.3529 38.8989 24.2696 39.3816 24.1012 39.8411C23.9346 40.2523 23.6838 40.6298 23.3624 40.9527C23.0382 41.2703 22.6442 41.5197 22.2069 41.684C21.7084 41.8653 21.1765 41.9547 20.641 41.9473C20.1138 41.9547 19.5901 41.8652 19.1004 41.684C18.6502 41.5197 18.2417 41.2707 17.9007 40.9527C17.5679 40.6289 17.3158 40.2415 17.162 39.8177C16.9922 39.3582 16.9047 38.876 16.9031 38.3902C16.9065 37.9123 16.9939 37.438 17.162 36.9861ZM18.9425 39.1566C18.9916 39.3981 19.0949 39.6273 19.2456 39.8294C19.376 40.0282 19.5584 40.1932 19.776 40.3092C20.0294 40.4306 20.3117 40.491 20.5968 40.4847C20.8988 40.4975 21.1992 40.437 21.4682 40.3092C21.6824 40.1942 21.8642 40.0338 21.9986 39.8411C22.1351 39.6452 22.2295 39.4267 22.2764 39.1976C22.3858 38.6897 22.3858 38.1668 22.2764 37.6589C22.228 37.4211 22.1292 37.1944 21.9859 36.992C21.8516 36.7993 21.6698 36.6389 21.4556 36.524C21.1958 36.4026 20.9063 36.3462 20.6158 36.3602C20.3306 36.3539 20.0483 36.4142 19.7949 36.5357C19.5794 36.649 19.3972 36.8097 19.2646 37.0037C19.1103 37.1974 19.0007 37.4185 18.9425 37.6531C18.8861 37.9034 18.8544 38.158 18.8478 38.4136C18.8537 38.6636 18.8854 38.9124 18.9425 39.1566Z" fill="#000E0D"/>
<path d="M28.0664 36.4654V37.7174C28.0664 38.4253 27.9843 39.0454 27.9149 39.572C27.8558 40.0276 27.7327 40.474 27.5487 40.9C27.3971 41.2207 27.1577 41.499 26.8541 41.7074C26.5169 41.8935 26.1287 41.985 25.7365 41.9706C25.5155 41.9706 25.3387 41.9706 25.1746 41.9706C25.0408 41.9498 24.9096 41.9165 24.7831 41.8712V40.3676L25.023 40.4378C25.1364 40.4479 25.2506 40.4479 25.364 40.4378C25.5054 40.4419 25.6431 40.3959 25.7491 40.3091C25.8861 40.195 25.9848 40.0467 26.0333 39.882C26.1282 39.5942 26.1917 39.2983 26.2227 38.9986C26.2669 38.6184 26.2922 38.1386 26.3048 37.5477L26.3616 35.0087H32.2022V41.7717H30.3079V36.4654H28.0664Z" fill="#000E0D"/>
<path d="M38.3394 35.0554H40.8651L37.8659 37.8461L40.985 41.7717H38.5162L36.3884 38.9284L35.6243 39.648V41.7717H33.7301V35.0554H35.6243V37.6062L38.3394 35.0554Z" fill="#000E0D"/>
<path d="M41.0862 36.9861C41.2336 36.561 41.4842 36.1727 41.8186 35.8512C42.149 35.5279 42.5492 35.2728 42.993 35.1023C43.4828 34.9211 44.0064 34.8316 44.5337 34.8391C45.067 34.8324 45.5967 34.9218 46.0933 35.1023C46.5321 35.2665 46.9266 35.5182 47.2488 35.8395C47.5757 36.1718 47.8269 36.5618 47.9875 36.9861C48.157 37.4454 48.2403 37.9283 48.2338 38.4136C48.2392 38.8989 48.1559 39.3816 47.9875 39.8411C47.8228 40.2519 47.5741 40.6293 47.2551 40.9527C46.9315 41.2794 46.5351 41.537 46.0933 41.7074C45.5948 41.8887 45.0628 41.9781 44.5274 41.9707C44.0001 41.9781 43.4765 41.8886 42.9867 41.7074C42.5456 41.5327 42.148 41.2758 41.8186 40.9527C41.4856 40.6302 41.2352 40.2422 41.0862 39.8177C40.9133 39.3589 40.8258 38.8762 40.8273 38.3902C40.8277 37.912 40.9152 37.4373 41.0862 36.9861ZM42.8794 39.1566C42.9285 39.3981 43.0317 39.6273 43.1825 39.8294C43.3145 40.027 43.4966 40.1916 43.7128 40.3092C43.9662 40.4306 44.2485 40.491 44.5337 40.4847C44.8251 40.4929 45.1141 40.4325 45.3735 40.3092C45.5882 40.1927 45.7717 40.0327 45.9102 39.8411C46.0466 39.6446 46.1429 39.4264 46.1943 39.1976C46.3037 38.6897 46.3037 38.1668 46.1943 37.6589C46.1451 37.4222 46.0487 37.196 45.9102 36.992C45.7653 36.7799 45.5603 36.6087 45.3175 36.4973C45.0747 36.3859 44.8036 36.3384 44.5337 36.3602C44.2485 36.3539 43.9662 36.4142 43.7128 36.5357C43.4985 36.6505 43.3166 36.8109 43.1825 37.0037C43.0325 37.2041 42.9293 37.4312 42.8794 37.6706C42.823 37.921 42.7913 38.1755 42.7847 38.4312C42.7917 38.6752 42.8234 38.9181 42.8794 39.1566Z" fill="#000E0D"/>
<path d="M54.0365 35.1315C54.323 35.1857 54.5996 35.2783 54.8573 35.4064C55.0882 35.5424 55.2792 35.7294 55.413 35.9505C55.5624 36.2196 55.6341 36.5199 55.6213 36.8222C55.6276 36.9962 55.6042 37.1699 55.5519 37.3371C55.5159 37.474 55.4516 37.6032 55.3624 37.7173C55.2916 37.8228 55.1968 37.9126 55.0846 37.9806C54.9852 38.0557 54.8772 38.1204 54.7626 38.1737C55.1035 38.2735 55.396 38.4804 55.5898 38.7587C55.7898 39.0349 55.8914 39.3623 55.8802 39.6948C55.8834 39.9865 55.8277 40.2762 55.716 40.5489C55.5982 40.799 55.4263 41.024 55.2109 41.21C54.9825 41.4014 54.7137 41.5468 54.4216 41.6371C54.088 41.7409 53.738 41.7924 53.3861 41.7892H49.3198V35.0554H53.0704C53.3943 35.0533 53.7176 35.0788 54.0365 35.1315ZM53.1904 37.6413C53.3096 37.6173 53.4217 37.5694 53.5187 37.5009C53.604 37.4536 53.667 37.3785 53.6955 37.2903C53.7379 37.1898 53.7572 37.0822 53.7523 36.9743C53.7568 36.878 53.7373 36.7819 53.6955 36.6935C53.6602 36.6087 53.5987 36.5355 53.5187 36.4829C53.4265 36.4178 53.3214 36.3701 53.2093 36.3425C53.0448 36.3014 52.8745 36.2836 52.7042 36.2899H51.2014V37.6939H52.6474C52.8297 37.6918 53.0115 37.6742 53.1904 37.6413ZM53.3167 40.4553C53.4577 40.411 53.5869 40.3392 53.6955 40.2447C53.7799 40.1717 53.841 40.0786 53.8723 39.9756C53.9015 39.8865 53.9164 39.7938 53.9165 39.7006C53.926 39.5592 53.9023 39.4175 53.8471 39.2853C53.8114 39.178 53.7321 39.0878 53.6261 39.0337C53.5123 38.9539 53.3767 38.9053 53.2346 38.8933C53.0403 38.8655 52.844 38.8518 52.6474 38.8523H51.2014V40.5314H52.6474C52.8734 40.5386 53.0992 40.5129 53.3167 40.4553Z" fill="#000E0D"/>
<path d="M56.8272 36.9861C56.9797 36.5631 57.2296 36.1758 57.5596 35.8511C57.8967 35.5272 58.3032 35.2721 58.753 35.1023C59.2427 34.9211 59.7663 34.8316 60.2936 34.839C60.8356 34.8282 61.3744 34.9177 61.8785 35.1023C62.3192 35.2664 62.7158 35.518 63.0403 35.8394C63.363 36.1736 63.6119 36.5632 63.7727 36.9861C63.9422 37.4454 64.0255 37.9282 64.019 38.4136C64.0244 38.8989 63.9412 39.3816 63.7727 39.8411C63.5999 40.2521 63.3449 40.6292 63.0213 40.9527C62.7027 41.2768 62.3131 41.5341 61.8785 41.7074C61.3803 41.8897 60.8481 41.9792 60.3126 41.9706C59.7853 41.9781 59.2617 41.8886 58.7719 41.7074C58.3227 41.534 57.9165 41.2772 57.5786 40.9527C57.246 40.6356 56.9899 40.2567 56.8272 39.8411C56.6543 39.3823 56.5668 38.8996 56.5683 38.4136C56.5658 37.9276 56.6534 37.4447 56.8272 36.9861ZM58.6267 39.1566C58.67 39.3986 58.7714 39.6286 58.9235 39.8294C59.0572 40.0256 59.2389 40.19 59.4539 40.3091C59.7072 40.4306 59.9895 40.4909 60.2747 40.4846C60.5681 40.4921 60.8588 40.4318 61.1208 40.3091C61.3323 40.1909 61.5134 40.0311 61.6512 39.8411C61.7968 39.6471 61.8997 39.4284 61.9542 39.1976C62.0636 38.6897 62.0636 38.1668 61.9542 37.6589C61.9079 37.4214 61.8113 37.1948 61.6701 36.992C61.4174 36.6921 61.0603 36.4826 60.6596 36.3994C60.2589 36.3162 59.8395 36.3643 59.4728 36.5356C59.2598 36.6521 59.0784 36.8122 58.9424 37.0037C58.7916 37.203 58.6902 37.4307 58.6456 37.6706C58.5861 37.9205 58.5544 38.1753 58.5509 38.4312C58.5552 38.6754 58.5869 38.9185 58.6456 39.1566H58.6267Z" fill="#000E0D"/>
</g>
<defs>
<clipPath id="clip0_0_163">
<rect width="64" height="42" fill="white"/>
</clipPath>
</defs>
</svg>
